# xmcd CD database file
#
# Track frame offsets:
#	150
#	13480
#	25340
#	43560
#	55940
#	77680
#	99017
#	115715
#	131925
#	144245
#	163665
#	178222
#	194872
#	195392
#
# Disc length: 2841 seconds
#
# Revision: 17
# Processed by: cddbd v1.5.2PL0 Copyright (c) Steve Scherf et al.
# Submitted via: CDex 1.70beta2
#
DISCID=c10b170e
DTITLE=Garth Brooks - Double Live - Disc One
DYEAR=1998
DGENRE=Country
TTITLE0=Callin' Baton Rouge ( Live 1998 ) - Garth Brooks
TTITLE1=Two of a Kind, Workin' on a Full House ( Live 1998 ) - Garth Brooks
TTITLE2=Shameless ( Live 1998 ) - Garth Brooks
TTITLE3=Papa Loved Mama ( Live 1998 ) - Garth Brooks
TTITLE4=The Thunder Rolls (The Long Version) ( Live 1998 ) - Garth Brooks
TTITLE5=We Shall Be Free ( Live 1998 ) - Garth Brooks
TTITLE6=Unanswered Prayers ( Live 1998 ) - Garth Brooks
TTITLE7=Standing Outside the Fire ( Live 1998 ) - Garth Brooks
TTITLE8=Longneck Bottle (With Special Guest Steve Wariner) ( Live 1998 ) - Garth Brooks
TTITLE9=It's Your Song ( Live 1998 ) - Garth Brooks
TTITLE10=Much Too Young (To Feel This Damn Old) ( Live 1998 ) - Garth Brooks
TTITLE11=The River ( Live 1998 ) - Garth Brooks
TTITLE12=[silence] ( Live 1998 ) - Garth Brooks
TTITLE13=Tearin' It Up (And Burnin' It Down) ( Live 1998 ) - Garth Brooks
EXTD=YEAR: 1998
EXTT0=
EXTT1=
EXTT2=
EXTT3=
EXTT4=
EXTT5=
EXTT6=
EXTT7=
EXTT8=
EXTT9=
EXTT10=
EXTT11=
EXTT12=
EXTT13=
PLAYORDER=
